<svg width="20" height="20" viewBox="0 0 20 20" fill="none" xmlns="http://www.w3.org/2000/svg">
<path d="M10.4992 7.13558C10.7893 7.08159 11.1431 7.0276 11.2776 7.00736C11.412 6.99386 11.78 7.00061 12.0914 7.01411C12.4027 7.03435 12.8485 7.10858 13.082 7.17607C13.3155 7.24355 13.7118 7.41227 13.9666 7.55398C14.2638 7.72269 14.752 8.12085 15.3535 8.68773C15.863 9.16687 16.5069 9.85521 16.797 10.2061C17.0801 10.5571 17.4622 11.0699 17.6533 11.3399C17.8443 11.6031 18 11.9 18 11.9945C18 12.0957 17.9505 12.1767 17.8797 12.1969C17.8019 12.2239 17.6462 12.1564 17.4976 12.0485C17.3561 11.9472 16.9244 11.6233 16.5423 11.3399C16.1531 11.0497 15.6012 10.6853 15.311 10.5301C15.0209 10.3681 14.5893 10.1656 14.3557 10.0779C14.009 9.94294 13.7755 9.9092 13.082 9.88221C12.4169 9.86196 12.0843 9.88895 11.5253 9.99693C11.1361 10.0712 10.4355 10.2601 9.96849 10.4086C9.50146 10.5638 8.56032 10.935 7.88101 11.2319C7.20169 11.5288 6.2747 11.9337 5.8289 12.1294C5.3831 12.3252 4.69671 12.6018 4.30751 12.7368C3.89002 12.8853 3.46544 12.9933 3.28146 13C3.0621 13 2.86397 12.946 2.6446 12.8245C2.44647 12.7166 2.26249 12.5479 2.1705 12.3724C2.07143 12.2037 2.00774 11.9675 2.00067 11.7785C1.99359 11.5761 2.04312 11.3534 2.13512 11.1847C2.20588 11.0362 2.44647 10.7663 2.65876 10.5773C2.86397 10.3951 3.33807 10.0712 3.70604 9.86196C4.074 9.65276 4.76747 9.29509 5.24865 9.06564C5.72276 8.83619 6.56483 8.47178 7.11677 8.24233C7.6758 8.01963 8.54617 7.6957 9.04858 7.53374C9.55099 7.36503 10.2091 7.18957 10.4992 7.13558Z" fill="white" fill-opacity="0.5"/>
</svg>
