<svg width="20" height="20" viewBox="0 0 20 20" fill="none" xmlns="http://www.w3.org/2000/svg">
<path fill-rule="evenodd" clip-rule="evenodd" d="M1.55551 3C1.78735 3.007 1.88571 3.07705 2.46883 3.6514C2.88334 4.06465 3.19949 4.44989 3.34 4.71605C3.45944 4.94719 3.59995 5.29741 3.65615 5.48652C3.70533 5.68965 3.74748 6.22898 3.74748 6.78232C3.74748 7.30063 3.78261 7.91701 3.82476 8.14815C3.86692 8.3793 4.03553 8.85559 4.19712 9.1988C4.35871 9.54201 4.6046 9.98328 4.73809 10.1794C4.86455 10.3685 5.13152 10.6837 5.32824 10.8728C5.51793 11.0619 5.83408 11.3211 6.03079 11.4472C6.22048 11.5803 6.57176 11.7554 6.80361 11.8534C7.03545 11.9445 7.47806 12.0706 7.78719 12.1336C8.14549 12.2036 8.82697 12.2597 9.64896 12.2737C10.3656 12.2807 11.2367 12.2667 11.581 12.2317C11.9252 12.2036 12.3889 12.1266 12.5997 12.0636C12.8105 12.0075 13.2039 11.8464 13.4779 11.7203C13.7519 11.5873 14.1313 11.3491 14.335 11.181C14.5388 11.0129 14.8479 10.7047 15.0235 10.4946C15.1992 10.2845 15.4802 9.84319 15.6488 9.51399C15.8174 9.18479 16.0141 8.76453 16.0774 8.56841C16.1687 8.30225 16.2108 7.87499 16.2881 5.47952L16.5832 4.88415C16.8221 4.40786 16.9977 4.17672 17.5317 3.6514C18.1148 3.07004 18.2131 3.007 18.445 3C18.6557 3 18.7401 3.04203 18.8525 3.19612C18.9368 3.30118 19 3.44827 19 3.52532C19 3.60237 18.8595 3.84051 18.6979 4.05064C18.5293 4.26778 18.3255 4.59698 18.2412 4.78609C18.1569 4.98221 18.0375 5.32542 17.9743 5.55657C17.9181 5.78771 17.8338 6.40409 17.7986 6.9224C17.7424 7.76992 17.7565 7.99406 17.911 9.0447C18.0024 9.6891 18.0797 10.4035 18.0797 10.6347C18.0797 10.9289 18.0164 11.216 17.8689 11.6013C17.7565 11.8954 17.5106 12.3928 17.3279 12.7009C17.1453 13.0091 16.8432 13.4504 16.6675 13.6815C16.4919 13.9127 16.0914 14.354 15.7893 14.6551C15.4872 14.9563 14.9111 15.4466 14.5247 15.7408C14.1313 16.035 13.513 16.4272 13.1547 16.6163C12.6138 16.8965 12.41 16.9666 12.0377 16.9946C11.7707 17.0156 11.2508 16.9736 10.7731 16.9035C9.99322 16.7774 9.93701 16.7774 9.22743 16.9035C8.77779 16.9736 8.29303 17.0156 7.99795 16.9946C7.57642 16.9666 7.40781 16.9105 6.84576 16.6163C6.48746 16.4272 5.86921 16.035 5.47577 15.7408C5.08937 15.4466 4.51327 14.9563 4.21117 14.6551C3.90907 14.347 3.50861 13.9127 3.33297 13.6815C3.15734 13.4504 2.85524 13.0091 2.67257 12.7009C2.48991 12.3928 2.24401 11.8954 2.1316 11.6013C1.98407 11.216 1.92084 10.9289 1.92084 10.6347C1.92084 10.4035 1.99812 9.6891 2.08945 9.0447C2.24401 7.99406 2.25806 7.76992 2.20186 6.9224C2.16673 6.40409 2.08242 5.78771 2.02622 5.55657C1.96299 5.32542 1.84355 4.98221 1.75925 4.78609C1.67494 4.59698 1.4712 4.26778 1.30258 4.05064C1.141 3.84051 1.00049 3.59536 1.00049 3.51832C0.99346 3.43427 1.06372 3.28718 1.14802 3.18211C1.26043 3.04203 1.35879 3 1.55551 3ZM5.79895 7.64385C6.25561 7.65785 6.36802 7.68587 6.50151 7.81895C6.64904 7.95904 6.6631 8.04309 6.6631 8.65947C6.6631 9.19179 6.63499 9.38791 6.53664 9.535C6.47341 9.64007 6.31182 9.78716 6.18536 9.8642C6.06592 9.94125 5.87623 10.0043 5.76382 10.0043C5.65844 10.0043 5.46172 9.95526 5.32824 9.89923C5.19475 9.84319 5.01911 9.6891 4.94183 9.57002C4.82942 9.38091 4.80132 9.21281 4.80132 8.69449C4.80132 8.30925 4.83645 7.98005 4.88563 7.896C4.93481 7.81895 5.03316 7.7279 5.11747 7.69287C5.19475 7.65085 5.50388 7.62984 5.79895 7.64385ZM14.2718 7.62283C14.7074 7.61583 14.8479 7.64384 15.0024 7.76292C15.1921 7.896 15.1992 7.92402 15.1992 8.60343C15.1992 9.08673 15.164 9.3669 15.0938 9.51399C15.0235 9.64707 14.876 9.77315 14.6722 9.8642C14.4404 9.96927 14.2858 9.99028 14.0891 9.95526C13.9486 9.92724 13.7449 9.82218 13.6465 9.72412C13.5411 9.62606 13.4217 9.40893 13.3725 9.23382C13.3233 9.0447 13.3023 8.72951 13.3304 8.43533C13.3655 8.04309 13.4006 7.92402 13.5482 7.79094C13.7097 7.64385 13.8011 7.62283 14.2718 7.62283ZM8.52487 8.28124C8.90425 8.29524 9.27661 8.34427 9.38902 8.40031C9.4944 8.45634 9.61384 8.57542 9.65599 8.67348C9.69814 8.77854 9.71922 9.27584 9.70517 9.8642C9.68409 10.7117 9.66302 10.9219 9.54358 11.153C9.4663 11.3071 9.27661 11.5102 9.12907 11.6083C8.89723 11.7554 8.77077 11.7904 8.37734 11.7904C7.9558 11.7904 7.87852 11.7694 7.63263 11.5733C7.48509 11.4542 7.30945 11.2511 7.24622 11.118C7.14083 10.9219 7.11976 10.6837 7.11976 9.75914C7.11273 8.77154 7.12678 8.62445 7.23919 8.51938C7.30945 8.45634 7.47806 8.37229 7.61155 8.33027C7.74503 8.28824 8.15954 8.26723 8.52487 8.28124ZM11.7356 8.26723C12.3327 8.28824 12.4803 8.30925 12.8456 8.58242L12.8667 9.62606C12.8807 10.2004 12.8667 10.7748 12.8456 10.9008C12.8245 11.0199 12.7262 11.223 12.6138 11.3421C12.5084 11.4682 12.3046 11.6223 12.1571 11.6923C12.0166 11.7694 11.7707 11.8254 11.6161 11.8254C11.4616 11.8254 11.2297 11.7834 11.1033 11.7344C10.9838 11.6783 10.7731 11.5242 10.6466 11.3841C10.5272 11.237 10.3937 11.0059 10.3515 10.8658C10.3164 10.7187 10.2813 10.1724 10.2813 9.65408C10.2813 9.00268 10.3094 8.67348 10.3656 8.58242C10.4148 8.51238 10.5834 8.41432 10.7379 8.35828C10.9346 8.28124 11.2367 8.26022 11.7356 8.26723Z" fill="#0D0D0D"/>
</svg>
