<svg width="20" height="20" viewBox="0 0 20 20" fill="none" xmlns="http://www.w3.org/2000/svg">
<path d="M9.08182 6.35663C9.4369 6.15163 9.96221 6.11924 10.6073 6.418C11.2492 6.71533 11.9207 7.31129 12.4147 8.16691C12.9087 9.02252 13.0891 9.90203 13.0256 10.6067C12.9618 11.3147 12.6711 11.7534 12.316 11.9584C11.9609 12.1634 11.4356 12.1958 10.7906 11.8971C10.1486 11.5997 9.47711 11.0038 8.98312 10.1481C8.48913 9.29253 8.30875 8.41302 8.37225 7.70839C8.43604 7.00037 8.72675 6.56163 9.08182 6.35663Z" fill="black"/>
<path fill-rule="evenodd" clip-rule="evenodd" d="M10.6403 1.0015C14.7506 0.99447 14.8931 1.0015 15.2254 1.26856V18.7259L15.0558 18.8594C14.8931 18.993 14.7642 19 12.6819 19L12.6677 19C10.5653 18.993 10.4704 18.9927 10.3283 18.8524C10.2401 18.7751 10.1723 18.7048 10.1723 18.6908C10.1665 18.6847 10.1456 18.316 10.1184 17.8339L10.1045 17.5874C10.0773 16.99 9.99593 16.2591 9.92811 15.971C9.84671 15.6125 9.75175 15.3736 9.62288 15.233C9.46688 15.0573 9.39227 15.0222 9.14131 15.0363C8.97852 15.0433 8.59191 15.1136 8.27312 15.1909C7.95433 15.2752 7.47276 15.3385 7.20823 15.3385C6.90301 15.3385 6.60457 15.2963 6.42822 15.219C6.26543 15.1557 6.02125 15.0222 5.87203 14.9238C5.7296 14.8254 5.53968 14.6146 5.4515 14.46C5.36333 14.3054 5.27515 14.0523 5.24802 13.8977C5.22089 13.715 5.24124 13.4761 5.30907 13.2301C5.37011 13.0192 5.52611 12.6678 5.87882 12.0705L5.58038 11.5785C5.41759 11.3044 5.22089 10.8828 5.14628 10.6297C5.07845 10.3767 5.01741 10.0956 5.01741 9.99724C5.01741 9.89884 5.05811 9.70206 5.10558 9.54745C5.14628 9.39986 5.26837 9.17497 5.53968 8.83763L5.31585 8.52137C5.19376 8.34567 5.07167 8.10672 5.04454 7.99428C5.01063 7.81155 5.05132 7.72722 5.34976 7.36177C5.54646 7.12984 5.76351 6.80656 5.83134 6.63789C5.90595 6.47625 5.96699 6.28649 5.96699 6.21621C5.96699 6.13188 5.81099 6.03349 5.34976 5.85076C5.01063 5.71723 4.62401 5.50639 4.48836 5.39395C4.35948 5.27447 4.18992 5.05661 4.12209 4.90199C4.06104 4.74738 4 4.49437 4 4.33976C4 4.18515 4.05426 3.93214 4.12209 3.77753C4.18992 3.62291 4.66471 2.9904 5.18019 2.37194C5.69568 1.75349 6.17726 1.19125 6.25187 1.12097C6.38074 1.00853 6.69274 1.0015 10.6403 1.0015ZM8.58182 5.49061C10.0077 4.66736 12.1115 5.64172 13.2807 7.66691C14.45 9.69209 14.2419 12.0012 12.816 12.8244C11.3901 13.6477 9.28634 12.6733 8.11709 10.6481C6.94785 8.62296 7.15592 6.31385 8.58182 5.49061Z" fill="black"/>
</svg>
