<svg width="20" height="20" viewBox="0 0 20 20" fill="none" xmlns="http://www.w3.org/2000/svg">
<path d="M6.38137 6.39848C6.59799 6.27793 6.95246 6.13729 7.16908 6.08371C7.41195 6.01674 7.75985 5.98995 8.08806 6.00335C8.50161 6.02344 8.72479 6.07032 9.13833 6.25114C9.63721 6.46545 9.70286 6.47885 10.484 6.47885C11.2717 6.47885 11.3242 6.46545 11.8297 6.24445C12.3023 6.03683 12.4139 6.01674 12.9784 6.01674C13.3854 6.01005 13.7267 6.05023 13.963 6.1239C14.1599 6.19087 14.5078 6.3516 14.731 6.49224C14.9542 6.63288 15.545 7.13517 16.0439 7.61066C16.5427 8.08616 17.186 8.7023 18 9.48586L17.2123 9.43898C16.7134 9.4122 16.1948 9.33853 15.801 9.23137C15.4597 9.14431 14.9608 9.03716 14.6982 8.99697C14.4422 8.95679 14.0024 8.9233 13.7333 8.9233C13.4641 8.9233 13.0834 8.95679 12.8931 8.99697C12.7093 9.03716 12.3023 9.19119 11.9938 9.33183C11.6852 9.47247 11.3045 9.61311 11.1404 9.65329C10.9763 9.69348 10.6809 9.72696 10.484 9.72696C10.2871 9.72696 9.99168 9.69348 9.82758 9.65329C9.66347 9.61311 9.28275 9.47247 8.97423 9.33183C8.66571 9.19119 8.25873 9.03716 8.06837 8.99697C7.88457 8.95679 7.49729 8.9233 7.22159 8.9233C6.93933 8.9233 6.46014 8.96349 6.15163 9.02376C5.84311 9.07734 5.35736 9.18449 5.06853 9.25816C4.76002 9.33853 4.21519 9.4122 3.75569 9.43898C3.32246 9.45908 2.98112 9.46577 3.00081 9.44568C3.0205 9.43229 3.49313 8.98358 4.05108 8.44781C4.60904 7.91873 5.27859 7.2892 5.52803 7.0481C5.78403 6.80701 6.16475 6.51903 6.38137 6.39848Z" fill="black"/>
<path d="M5.39674 9.72026C5.64618 9.65329 6.03347 9.56623 6.25009 9.53274C6.46671 9.49926 6.88025 9.47247 7.16908 9.46577C7.4579 9.46577 7.8255 9.49256 7.9896 9.53274C8.15371 9.57293 8.53443 9.71357 8.84295 9.85421C9.15146 9.99485 9.55844 10.1489 9.74224 10.1891C9.9326 10.2292 10.2674 10.2627 10.484 10.2627C10.7006 10.2627 11.0354 10.2292 11.2192 10.1891C11.4095 10.1489 11.8165 9.99485 12.125 9.85421C12.4336 9.71357 12.8471 9.56623 13.044 9.51935C13.2738 9.47247 13.6545 9.45238 14.0943 9.47917C14.475 9.50596 15.0199 9.58632 15.3087 9.65999C15.5975 9.73366 16.0833 9.84081 16.3918 9.89439C16.7003 9.95466 17.1073 9.99485 17.639 9.99485L17.0613 10.7851C16.7397 11.2137 16.2867 11.7495 16.057 11.9705C15.8273 12.1915 15.4728 12.4795 15.2759 12.6134C15.0789 12.7474 14.7113 12.9617 14.4553 13.0889C14.1993 13.2229 13.8186 13.3836 13.602 13.464C13.3854 13.5376 12.9718 13.6582 12.683 13.7386C12.3942 13.8122 11.8756 13.906 11.5343 13.9529C11.1601 13.9997 10.5693 14.0131 10.0573 13.9863C9.51906 13.9663 8.94797 13.8859 8.51474 13.7854C8.13401 13.6984 7.60231 13.5443 7.33318 13.4439C7.06405 13.3434 6.63081 13.1559 6.38137 13.0287C6.13193 12.8947 5.7709 12.6804 5.59367 12.5532C5.40987 12.4192 5.09479 12.1446 4.87817 11.937C4.66812 11.7361 4.22832 11.2137 3.32902 9.99485H3.65723C3.83446 9.99485 4.20206 9.96136 4.45806 9.92118C4.72063 9.881 5.1473 9.79393 5.39674 9.72026Z" fill="black"/>
</svg>
