<svg width="20" height="20" viewBox="0 0 20 20" fill="none" xmlns="http://www.w3.org/2000/svg">
<path d="M8.71219 2.37626C8.87811 2.27592 9.15463 2.14692 9.32844 2.08959C9.52596 2.01792 9.82619 1.98925 10.1185 2.00358C10.4503 2.02508 10.719 2.08959 11.0192 2.24009C11.2562 2.35476 11.5643 2.57693 11.7144 2.7346C11.8646 2.89227 12.1253 3.27928 12.2912 3.59462C12.4571 3.90997 12.6467 4.39731 12.7178 4.66965C12.7889 4.94199 12.8758 5.40067 12.9232 5.67301C12.9627 5.94535 13.0497 6.86271 13.1208 7.70123C13.2235 9.06293 13.263 9.27794 13.4763 9.77245C13.6027 10.0806 13.9503 10.6826 14.2348 11.1198C14.5271 11.557 14.93 12.1662 15.1354 12.4815C15.3408 12.7969 15.6016 13.277 15.728 13.5566C15.886 13.9077 15.965 14.2302 15.9887 14.6316C16.0203 15.0831 15.9887 15.3124 15.8544 15.7066C15.7675 15.9861 15.5621 16.3588 15.412 16.5523C15.2618 16.7386 15.0011 16.9751 14.8431 17.0898C14.6772 17.1973 14.4244 17.3191 14.2664 17.3693C14.1162 17.4195 13.8318 17.4553 13.6343 17.4553C13.4368 17.4625 13.1919 17.4195 13.0813 17.3693C12.9706 17.3191 12.8679 17.2188 12.86 17.14C12.8442 17.0611 12.8916 16.9608 12.9786 16.9106C13.0576 16.8605 13.263 16.8461 13.4763 16.8676C13.6975 16.8891 13.9503 16.8605 14.1478 16.796C14.3217 16.7315 14.5587 16.5881 14.6851 16.4663C14.8036 16.3445 14.8984 16.2226 14.8984 16.194C14.8984 16.1581 14.7641 16.0578 14.5982 15.9574C14.4323 15.8571 14.1478 15.7711 13.9503 15.7568C13.737 15.7353 13.5 15.7639 13.3578 15.8284C13.2314 15.8929 12.939 16.1295 12.7099 16.3588C12.4808 16.5953 12.149 16.9536 11.9594 17.1686C11.7618 17.398 11.4379 17.6488 11.1851 17.7778C10.7822 17.9857 10.6953 18 10 18C9.30474 18 9.21783 17.9857 8.8149 17.7778C8.56208 17.6488 8.23815 17.398 8.04064 17.1686C7.85102 16.9536 7.51919 16.5953 7.29007 16.3588C7.06095 16.1295 6.77653 15.8929 6.64222 15.8284C6.50001 15.7639 6.26299 15.7353 6.04967 15.7568C5.85215 15.7711 5.56773 15.8571 5.40181 15.9574C5.2359 16.0578 5.10159 16.1581 5.10159 16.194C5.10159 16.2226 5.1964 16.3445 5.32281 16.4663C5.44132 16.5881 5.67834 16.7315 5.85215 16.796C6.04967 16.8605 6.30249 16.8891 6.52371 16.8676C6.73703 16.8461 6.94244 16.8605 7.02145 16.9106C7.10836 16.9608 7.15576 17.0611 7.13996 17.14C7.13206 17.2188 7.02935 17.3191 6.91874 17.3693C6.80813 17.4195 6.56321 17.4625 6.36569 17.4553C6.16818 17.4553 5.88375 17.4195 5.73364 17.3693C5.57563 17.3191 5.32281 17.1973 5.15689 17.0898C4.99888 16.9751 4.73816 16.7386 4.58805 16.5523C4.43793 16.3588 4.23252 15.9861 4.14561 15.7066C4.0113 15.3124 3.97969 15.0831 4.0113 14.6316C4.035 14.2302 4.11401 13.9077 4.27202 13.5566C4.39843 13.277 4.65915 12.7969 4.86457 12.4815C5.06999 12.1662 5.47292 11.557 5.76524 11.1198C6.04967 10.6826 6.3973 10.0806 6.52371 9.77245C6.73703 9.27794 6.77653 9.06293 6.87924 7.70123C6.95034 6.86271 7.03725 5.94535 7.07675 5.67301C7.12416 5.40067 7.21107 4.94199 7.28217 4.66965C7.35328 4.39731 7.52709 3.93863 7.6693 3.66629C7.81152 3.39395 8.03273 3.02844 8.17495 2.86361C8.30926 2.6916 8.55418 2.4766 8.71219 2.37626Z" fill="#8B8A8A"/>
</svg>
