<svg width="20" height="20" viewBox="0 0 20 20" fill="none" xmlns="http://www.w3.org/2000/svg">
<path fill-rule="evenodd" clip-rule="evenodd" d="M11.925 7.29066C10.8695 6.52434 10.2273 6.14119 9.82132 5.93834C9.41534 5.743 8.81745 5.49507 8.49268 5.38238C8.13099 5.26217 7.75454 5.07435 7.51096 4.88653C7.2969 4.71373 7.04593 4.58601 6.93521 4.58601C6.81711 4.58601 6.66211 4.67616 6.51448 4.83394C6.3078 5.05181 6.29304 5.1044 6.32995 5.41243C6.35209 5.60025 6.4259 5.86321 6.49233 5.99844C6.55877 6.12616 6.77283 6.41165 6.9795 6.6145C7.22309 6.86243 7.57001 7.10284 7.99075 7.3132C8.5222 7.56864 8.64768 7.66631 8.66245 7.81657C8.67721 7.92926 8.63292 8.04947 8.55911 8.11709C8.47791 8.19222 8.04241 8.27486 7.31904 8.3575C6.52924 8.44766 5.58443 8.48522 4.07864 8.49273H1.95282C1.65756 8.79325 1.59113 8.95853 1.59113 9.09377C1.59113 9.23651 1.65756 9.38677 1.77566 9.50698L1.9602 9.6948C5.79849 9.6948 5.8723 9.70231 5.94612 9.84506C5.98302 9.9277 6.00517 10.0629 5.98302 10.1456C5.96088 10.2282 5.88707 10.3109 5.81325 10.3334C5.74682 10.3559 4.69129 10.6114 3.47337 10.9044C1.65018 11.3401 1.23683 11.4603 1.12611 11.5956C1.05229 11.6857 0.993243 11.851 1.00062 11.9712C1.00062 12.0989 1.0892 12.2642 1.25897 12.437C1.41398 12.5948 1.59113 12.7 1.70185 12.7C1.80519 12.7 2.81643 12.4295 3.95316 12.0989C5.08988 11.7684 6.10112 11.4979 6.20446 11.4979C6.3078 11.4979 6.44067 11.5505 6.49972 11.6106C6.55877 11.6707 6.61044 11.7834 6.61044 11.8585C6.61782 11.9261 6.55877 12.0388 6.48495 12.1065C6.41114 12.1741 5.51062 12.6624 4.48461 13.1808C3.34051 13.7593 2.59499 14.1875 2.5507 14.2777C2.50642 14.3603 2.47689 14.4956 2.47689 14.5782C2.47689 14.6608 2.56547 14.8186 2.67619 14.9313C2.85334 15.0966 2.92715 15.1267 3.17812 15.0891C3.36265 15.0665 4.14507 14.6759 5.2818 14.0523C6.27828 13.5039 7.19356 13.0456 7.31166 13.023C7.45929 12.993 7.57739 13.023 7.65859 13.1057C7.7324 13.1733 7.79145 13.286 7.79145 13.3611C7.79145 13.4287 7.75454 13.5264 7.71764 13.579C7.68073 13.6316 7.14927 13.9621 6.53662 14.3228C5.93135 14.6834 5.36299 15.0515 5.2818 15.1342C5.19322 15.2243 5.12679 15.3671 5.13417 15.4647C5.13417 15.5549 5.22275 15.7202 5.33347 15.8329C5.51062 16.0057 5.57705 16.0207 5.8354 15.9831C6.01255 15.9531 6.57353 15.6676 7.23785 15.2619C7.84312 14.8937 8.66245 14.4355 9.04628 14.2401C9.4301 14.0448 9.90989 13.8194 10.1166 13.7368C10.3159 13.6541 10.7809 13.4362 11.15 13.2484C11.5116 13.0606 12.1391 12.6925 12.5303 12.4295C13.1946 11.9862 13.2684 11.9111 13.4455 11.5204C13.5489 11.28 13.6522 10.8969 13.6744 10.6715C13.7113 10.3033 13.6818 10.2057 13.4455 9.7549L13.1798 9.24403C13.6079 8.95102 13.6301 8.95102 13.7334 9.07874C13.7925 9.14636 13.9327 9.39428 14.0434 9.61967C14.1542 9.84506 14.2575 10.2057 14.2796 10.4085C14.2944 10.6339 14.2575 10.9419 14.1837 11.1974C14.1173 11.4228 14.073 11.6181 14.0803 11.6256C14.0951 11.6407 15.2023 11.4078 16.5383 11.1223C16.8638 11.0509 17.1758 10.9826 17.4615 10.9201C18.3486 10.7259 18.9833 10.587 18.9889 10.5813C19.0037 10.5663 19.0037 9.08625 18.9889 7.28315L18.9742 4L11.925 7.29066ZM13.9918 8.49274H14.5823V7.8917H13.9918V8.49274ZM15.6526 8.38004C15.5492 8.48522 15.4754 8.65051 15.468 8.79325C15.468 8.936 15.5345 9.08626 15.6526 9.20646C15.7707 9.32667 15.9183 9.39429 16.0585 9.39429C16.2062 9.39429 16.3538 9.32667 16.4645 9.20646C16.5826 9.09377 16.649 8.92849 16.649 8.79325C16.649 8.65051 16.5826 8.50025 16.4645 8.38004C16.3464 8.25984 16.1988 8.19222 16.0585 8.19222C15.9109 8.19222 15.7633 8.25984 15.6526 8.38004ZM17.5348 8.79325V8.19222H18.1253V8.79325H17.5348ZM10.744 9.39429H11.3345V8.79325H10.744V9.39429ZM8.0867 10.2958V9.69481H8.67721V10.2958H8.0867ZM10.6333 10.7842C10.5299 10.8894 10.4561 11.0546 10.4487 11.1974C10.4487 11.3401 10.5152 11.4904 10.6333 11.6106C10.7514 11.7308 10.899 11.7984 11.0392 11.7984C11.1869 11.7984 11.3345 11.7308 11.4452 11.6106C11.5633 11.4979 11.6297 11.3326 11.6297 11.1974C11.6297 11.0546 11.5633 10.9044 11.4452 10.7842C11.3271 10.664 11.1795 10.5964 11.0392 10.5964C10.8916 10.5964 10.744 10.664 10.6333 10.7842Z" fill="#F1C950"/>
</svg>
