<svg width="20" height="20" viewBox="0 0 20 20" fill="none" xmlns="http://www.w3.org/2000/svg">
<path d="M13.4162 2.40625C13.7778 2.09286 14.3245 1.65893 14.6273 1.42589C14.9301 1.19286 15.2413 1.00804 15.3086 1C15.3759 1 15.4852 1.04018 15.5441 1.09643C15.603 1.15268 15.645 1.24911 15.645 1.29732C15.645 1.35357 15.4011 1.73929 15.1067 2.14107C14.8039 2.55089 14.3161 3.37857 14.0133 3.97321C13.7105 4.56786 13.3152 5.49196 13.1302 6.02232C12.9536 6.55268 12.7265 7.36429 12.6256 7.83036C12.533 8.29643 12.4153 9.02768 12.3648 9.45357C12.3228 9.8875 12.2807 10.6107 12.2807 11.0607C12.2807 11.5187 12.3312 12.2821 12.3817 12.7723C12.4405 13.2625 12.491 13.8893 12.491 14.1786C12.491 14.508 12.4321 14.8054 12.348 14.9821C12.2639 15.1348 12.0368 15.4161 11.8434 15.6089C11.6247 15.8179 11.2967 16.0188 11.0191 16.1152C10.6743 16.2438 10.422 16.2759 10.0098 16.2518C9.62294 16.2277 9.3538 16.1554 9.08466 16.0107C8.87439 15.8982 8.58001 15.6732 8.43703 15.5125C8.28564 15.3518 8.10901 15.0545 8.04173 14.8375C7.97444 14.6286 7.89875 14.1705 7.86511 13.817C7.83146 13.4473 7.84828 12.8286 7.89875 12.3705C7.95762 11.9286 8.05855 11.2937 8.12584 10.9643C8.20153 10.6348 8.38657 9.98393 8.54637 9.51786C8.70617 9.05179 9.08466 8.18393 9.38744 7.58929C9.69023 6.99464 10.2117 6.11071 10.5481 5.62054C10.893 5.13036 11.5238 4.34286 11.9611 3.85268C12.3985 3.3625 13.0545 2.71161 13.4162 2.40625Z" fill="#F1C950"/>
<path d="M2.00285 14.9661C1.99444 11.2616 1.99444 11.133 2.15424 11.0527C2.24676 11.0045 3.06259 10.9723 4.12234 10.9643C5.11481 10.9643 6.07363 11.0045 6.25025 11.0446C6.41846 11.0929 6.6792 11.2214 6.82218 11.342C6.97357 11.4705 7.1502 11.6795 7.21748 11.808C7.32682 11.9929 7.36887 12.4027 7.40252 13.5357C7.45298 14.95 7.46139 15.0464 7.68007 15.4402C7.80623 15.6732 8.06696 16.0187 8.26882 16.2036C8.46226 16.3884 8.83234 16.6295 9.08466 16.75C9.46314 16.9187 9.67341 16.9509 10.2622 16.9509C10.893 16.9509 11.0443 16.9187 11.5238 16.7018C11.8686 16.5411 12.205 16.3 12.4321 16.0589C12.634 15.842 12.8779 15.4643 12.9704 15.2232C13.1218 14.8536 13.1554 14.5643 13.1807 13.4152C13.1975 12.6196 13.2564 11.9527 13.3152 11.8161C13.3741 11.6875 13.5423 11.4786 13.6937 11.35C13.8367 11.2295 14.1058 11.0929 14.2825 11.0446C14.4507 11.0045 15.3002 10.9643 16.1749 10.9643C17.4617 10.9643 17.7729 10.9884 17.8738 11.0848C17.9832 11.1893 18 11.7357 18 14.9982C18 17.875 17.9748 18.8232 17.8991 18.8955C17.8234 18.9759 16.1328 19 10.0098 19C3.84479 19 2.2047 18.9839 2.1206 18.9036C2.0449 18.8232 2.01126 17.9393 2.00285 14.9661Z" fill="#F1C950"/>
</svg>
