<svg width="20" height="20" viewBox="0 0 20 20" fill="none" xmlns="http://www.w3.org/2000/svg">
<path fill-rule="evenodd" clip-rule="evenodd" d="M5.11628 3.3791C5.0502 3.40598 4.96973 3.4616 4.93749 3.50265C4.90527 3.54373 4.413 4.39792 3.84357 5.40084C3.27414 6.40377 2.73684 7.34743 2.64957 7.49787C2.50499 7.74714 2.49201 7.78356 2.503 7.90842C2.51209 8.01132 2.53636 8.06839 2.60059 8.13763C2.64761 8.18835 3.16758 8.55467 3.75607 8.95167L4.82604 9.67352L4.84069 13.0337L4.85535 16.394L4.92573 16.4817C4.96446 16.5299 5.0502 16.5912 5.11628 16.6179C5.23189 16.6645 5.41713 16.6663 10 16.6663C14.5829 16.6663 14.7681 16.6645 14.8837 16.6179C14.9498 16.5912 15.0355 16.5299 15.0743 16.4817L15.1446 16.394L15.1593 13.0352L15.174 9.67636L16.2439 8.95331C16.8324 8.55563 17.3524 8.18869 17.3994 8.13784C17.4636 8.0685 17.4879 8.01124 17.497 7.90842C17.508 7.78356 17.495 7.74714 17.3504 7.49787C17.2632 7.34743 16.7261 6.40377 16.1569 5.40084C15.5877 4.39792 15.0911 3.5403 15.0532 3.495C14.9159 3.33062 14.8808 3.32723 13.4128 3.33546L12.0913 3.34289L11.9837 3.41588C11.8319 3.51881 11.7853 3.61631 11.7585 3.88749C11.7178 4.29924 11.5642 4.59657 11.2447 4.88232C10.9014 5.18919 10.5003 5.33509 10 5.33509C9.50169 5.33509 9.10117 5.18885 8.754 4.8801C8.43614 4.59746 8.28219 4.29929 8.2415 3.88749C8.21467 3.61631 8.16812 3.51881 8.01631 3.41588L7.90866 3.34289L6.57255 3.33653C5.3191 3.33059 5.22899 3.33322 5.11628 3.3791Z" fill="#0D0D0D"/>
</svg>
