<svg width="20" height="20" viewBox="0 0 20 20" fill="none" xmlns="http://www.w3.org/2000/svg">
<path fill-rule="evenodd" clip-rule="evenodd" d="M5.11628 3.37946C5.0502 3.40635 4.96973 3.46197 4.93749 3.50302C4.90527 3.5441 4.413 4.39828 3.84357 5.40121C3.27414 6.40414 2.73684 7.3478 2.64957 7.49824C2.50499 7.74751 2.49201 7.78393 2.503 7.90879C2.51209 8.01168 2.53636 8.06876 2.60059 8.138C2.64761 8.18872 3.16758 8.55504 3.75607 8.95204L4.82604 9.67388L4.84069 13.0341L4.85535 16.3943L4.92573 16.482C4.96446 16.5303 5.0502 16.5916 5.11628 16.6182C5.23189 16.6649 5.41713 16.6667 10 16.6667C14.5829 16.6667 14.7681 16.6649 14.8837 16.6182C14.9498 16.5916 15.0355 16.5303 15.0743 16.482L15.1446 16.3943L15.1593 13.0355L15.174 9.67672L16.2439 8.95368C16.8324 8.556 17.3524 8.18906 17.3994 8.13821C17.4636 8.06886 17.4879 8.01161 17.497 7.90879C17.508 7.78393 17.495 7.74751 17.3504 7.49824C17.2632 7.3478 16.7261 6.40414 16.1569 5.40121C15.5877 4.39828 15.0911 3.54066 15.0532 3.49536C14.9159 3.33099 14.8808 3.3276 13.4128 3.33583L12.0913 3.34326L11.9837 3.41625C11.8319 3.51917 11.7853 3.61668 11.7585 3.88786C11.7178 4.2996 11.5642 4.59694 11.2447 4.88268C10.9014 5.18955 10.5003 5.33546 10 5.33546C9.50169 5.33546 9.10117 5.18921 8.754 4.88047C8.43614 4.59783 8.28219 4.29966 8.2415 3.88786C8.21467 3.61668 8.16812 3.51917 8.01631 3.41625L7.90866 3.34326L6.57255 3.3369C5.3191 3.33096 5.22899 3.33359 5.11628 3.37946Z" fill="white" fill-opacity="0.5"/>
</svg>
