<svg width="20" height="20" viewBox="0 0 20 20" fill="none" xmlns="http://www.w3.org/2000/svg">
<g clip-path="url(#clip0_98_486)">
<path d="M1.66699 12.5C7.22283 7.49996 12.7778 12.5 18.3337 7.49996M7.50033 18.3333C8.99866 16.6683 9.59866 15.0041 9.83949 13.3391M12.5003 1.66663C11.002 3.33163 10.402 4.99579 10.1612 6.66079M14.167 4.99996L12.0837 2.91663M11.667 6.66663L10.8337 5.83329M5.83366 15L7.91699 17.0833M2.91699 12.0833L3.33366 12.5M16.667 7.49996L17.0837 7.91663M5.41699 10.4166L6.25033 11.25M13.7503 8.74996L14.5837 9.58329M8.33366 13.3333L9.58366 14.5833" stroke="white" stroke-opacity="0.5" stroke-width="2" stroke-linecap="round" stroke-linejoin="round"/>
</g>
<defs>
<clipPath id="clip0_98_486">
<rect width="20" height="20" fill="white"/>
</clipPath>
</defs>
</svg>
