<svg width="20" height="20" viewBox="0 0 20 20" fill="none" xmlns="http://www.w3.org/2000/svg">
<g clip-path="url(#clip0_98_450)">
<path d="M7.50033 9.79163C6.92533 9.79163 6.45866 10.2583 6.45866 10.8333C6.45866 11.4083 6.92533 11.875 7.50033 11.875C8.07533 11.875 8.54199 11.4083 8.54199 10.8333C8.54199 10.2583 8.07533 9.79163 7.50033 9.79163ZM12.5003 9.79163C11.9253 9.79163 11.4587 10.2583 11.4587 10.8333C11.4587 11.4083 11.9253 11.875 12.5003 11.875C13.0753 11.875 13.542 11.4083 13.542 10.8333C13.542 10.2583 13.0753 9.79163 12.5003 9.79163ZM10.0003 1.66663C5.40033 1.66663 1.66699 5.39996 1.66699 9.99996C1.66699 14.6 5.40033 18.3333 10.0003 18.3333C14.6003 18.3333 18.3337 14.6 18.3337 9.99996C18.3337 5.39996 14.6003 1.66663 10.0003 1.66663ZM10.0003 16.6666C6.32533 16.6666 3.33366 13.675 3.33366 9.99996C3.33366 9.75829 3.35033 9.51663 3.37533 9.28329C5.34199 8.40829 6.90033 6.79996 7.71699 4.80829C9.22533 6.94163 11.7087 8.33329 14.517 8.33329C15.167 8.33329 15.792 8.25829 16.392 8.11663C16.567 8.70829 16.667 9.34163 16.667 9.99996C16.667 13.675 13.6753 16.6666 10.0003 16.6666Z" fill="#0D0D0D"/>
</g>
<defs>
<clipPath id="clip0_98_450">
<rect width="20" height="20" fill="white"/>
</clipPath>
</defs>
</svg>
