<svg width="20" height="20" viewBox="0 0 20 20" fill="none" xmlns="http://www.w3.org/2000/svg">
<g clip-path="url(#clip0_98_524)">
<path d="M7.50033 9.79175C6.92533 9.79175 6.45866 10.2584 6.45866 10.8334C6.45866 11.4084 6.92533 11.8751 7.50033 11.8751C8.07533 11.8751 8.54199 11.4084 8.54199 10.8334C8.54199 10.2584 8.07533 9.79175 7.50033 9.79175ZM12.5003 9.79175C11.9253 9.79175 11.4587 10.2584 11.4587 10.8334C11.4587 11.4084 11.9253 11.8751 12.5003 11.8751C13.0753 11.8751 13.542 11.4084 13.542 10.8334C13.542 10.2584 13.0753 9.79175 12.5003 9.79175ZM10.0003 1.66675C5.40033 1.66675 1.66699 5.40008 1.66699 10.0001C1.66699 14.6001 5.40033 18.3334 10.0003 18.3334C14.6003 18.3334 18.3337 14.6001 18.3337 10.0001C18.3337 5.40008 14.6003 1.66675 10.0003 1.66675ZM10.0003 16.6667C6.32533 16.6667 3.33366 13.6751 3.33366 10.0001C3.33366 9.75842 3.35033 9.51675 3.37533 9.28342C5.34199 8.40842 6.90033 6.80008 7.71699 4.80841C9.22533 6.94175 11.7087 8.33342 14.517 8.33342C15.167 8.33342 15.792 8.25841 16.392 8.11675C16.567 8.70842 16.667 9.34175 16.667 10.0001C16.667 13.6751 13.6753 16.6667 10.0003 16.6667Z" fill="white" fill-opacity="0.5"/>
</g>
<defs>
<clipPath id="clip0_98_524">
<rect width="20" height="20" fill="white"/>
</clipPath>
</defs>
</svg>
