<svg width="20" height="20" viewBox="0 0 20 20" fill="none" xmlns="http://www.w3.org/2000/svg">
<g clip-path="url(#clip0_110_825)">
<path d="M1.66699 12.5001C7.22283 7.50008 12.7778 12.5001 18.3337 7.50008M7.50033 18.3334C8.99866 16.6684 9.59866 15.0042 9.83949 13.3392M12.5003 1.66675C11.002 3.33175 10.402 4.99591 10.1612 6.66091M14.167 5.00008L12.0837 2.91675M11.667 6.66675L10.8337 5.83341M5.83366 15.0001L7.91699 17.0834M2.91699 12.0834L3.33366 12.5001M16.667 7.50008L17.0837 7.91675M5.41699 10.4167L6.25033 11.2501M13.7503 8.75008L14.5837 9.58342M8.33366 13.3334L9.58366 14.5834" stroke="white" stroke-width="2" stroke-linecap="round" stroke-linejoin="round"/>
</g>
<defs>
<clipPath id="clip0_110_825">
<rect width="20" height="20" fill="white"/>
</clipPath>
</defs>
</svg>
