<svg width="20" height="20" viewBox="0 0 20 20" fill="none" xmlns="http://www.w3.org/2000/svg">
<path d="M12.0455 2.5V3.86364H15.1722L10.1172 8.91868C9.31818 8.32209 8.34339 7.95455 7.27273 7.95455C4.64666 7.95455 2.5 10.1012 2.5 12.7273C2.5 15.3533 4.64666 17.5 7.27273 17.5C9.89879 17.5 12.0455 15.3533 12.0455 12.7273C12.0455 11.6566 11.6779 10.6818 11.0813 9.88281L16.1364 4.82777V7.95455H17.5V2.5H12.0455ZM7.27273 9.31818C9.16371 9.31818 10.6818 10.8363 10.6818 12.7273C10.6818 14.6183 9.16371 16.1364 7.27273 16.1364C5.38175 16.1364 3.86364 14.6183 3.86364 12.7273C3.86364 10.8363 5.38175 9.31818 7.27273 9.31818Z" fill="white"/>
</svg>
