<svg width="20" height="20" viewBox="0 0 20 20" fill="none" xmlns="http://www.w3.org/2000/svg">
<path fill-rule="evenodd" clip-rule="evenodd" d="M7.13458 2.52678C7.05393 2.54752 6.94175 2.58799 6.88529 2.6167C6.82883 2.64541 5.85607 3.5947 4.72359 4.7262C2.39354 7.05423 2.50076 6.92668 2.50076 7.37002C2.50076 7.81319 2.39368 7.68576 4.72359 10.0155C7.06273 12.3546 6.92357 12.2383 7.38387 12.2383C7.7806 12.2383 7.79409 12.2287 8.8063 11.223L9.68615 10.3488L9.67832 13.5273C9.67055 16.6776 9.67102 16.7072 9.73105 16.8678C9.81168 17.0832 10.0185 17.3004 10.2434 17.4056L10.4194 17.4879L13.4695 17.4968C16.6356 17.506 16.7443 17.5026 16.975 17.3849C17.1331 17.3042 17.3261 17.0968 17.4114 16.916L17.4875 16.7547L17.4966 13.6754C17.506 10.5174 17.5026 10.4021 17.3936 10.1894C17.3215 10.0487 17.1164 9.84688 16.9703 9.77283C16.8942 9.73429 16.7419 9.68881 16.6318 9.67177C16.3906 9.63446 10.5175 9.64652 10.4047 9.68455C10.3622 9.69884 10.7093 9.32808 11.2294 8.80357C12.0539 7.97211 12.1326 7.88401 12.1899 7.72817C12.2722 7.50452 12.2724 7.23629 12.1903 7.01188C12.1314 6.85081 12.0224 6.73606 10.0567 4.76594C8.24478 2.95003 7.96305 2.67905 7.80914 2.60415C7.59862 2.50171 7.34507 2.47261 7.13458 2.52678ZM7.57111 4.13588C7.81738 4.20902 8.0296 4.50675 8.0288 4.77797C8.02839 4.9246 7.90469 5.1652 7.78133 5.25929C7.29736 5.62843 6.61201 5.2116 6.74176 4.62699C6.82778 4.23955 7.19265 4.0235 7.57111 4.13588ZM7.66991 6.79474C7.73036 6.82574 7.8087 6.88208 7.84398 6.91994C7.94014 7.02311 8.02781 7.23773 8.02781 7.37002C8.02781 7.50232 7.94014 7.71693 7.84398 7.82011C7.58589 8.09699 7.07695 8.06634 6.85544 7.76057C6.45349 7.2057 7.06267 6.48334 7.66991 6.79474ZM7.64742 9.3987C7.70367 9.42164 7.7813 9.46944 7.81996 9.50498C7.9207 9.5976 8.02851 9.84321 8.02851 9.98014C8.02851 10.1171 7.9207 10.3627 7.81999 10.4553C7.78136 10.4908 7.68505 10.5484 7.60598 10.5834C7.14822 10.7859 6.63398 10.349 6.74126 9.84873C6.82907 9.43935 7.24289 9.23385 7.64742 9.3987ZM11.8711 11.0237C12.1276 11.14 12.2599 11.3372 12.2639 11.6093C12.27 12.021 11.9076 12.3209 11.4924 12.2479C10.9664 12.1553 10.7913 11.4529 11.2108 11.1181C11.4139 10.9561 11.6481 10.9226 11.8711 11.0237ZM15.8705 11.0614C16.2128 11.262 16.2898 11.7392 16.0281 12.0373C15.7682 12.3333 15.3051 12.334 15.0524 12.0389C14.8205 11.7678 14.8423 11.3931 15.1047 11.1437C15.31 10.9485 15.6208 10.9151 15.8705 11.0614ZM13.7794 12.9569C13.8369 12.9729 13.9376 13.0319 14.0032 13.088C14.2984 13.3407 14.2977 13.8037 14.0017 14.0636C13.8662 14.1826 13.7195 14.2271 13.5128 14.2122C12.9941 14.1747 12.7464 13.545 13.0972 13.1559C13.2801 12.953 13.5167 12.8839 13.7794 12.9569ZM11.8874 14.9478C12.2725 15.1227 12.3866 15.6293 12.113 15.949C11.6714 16.4649 10.8344 16.045 10.9923 15.3867C11.0845 15.0024 11.5284 14.7847 11.8874 14.9478ZM15.7801 14.932C16.032 15.0376 16.1811 15.2628 16.1811 15.5376C16.1811 15.9334 15.8842 16.207 15.4891 16.1753C15.1537 16.1483 14.8919 15.8689 14.8919 15.5376C14.8919 15.2795 15.1159 14.9724 15.3467 14.9141C15.4646 14.8842 15.6882 14.8935 15.7801 14.932Z" fill="white"/>
</svg>
