<svg width="170" height="170" viewBox="0 0 170 170" fill="none" xmlns="http://www.w3.org/2000/svg">
<path d="M5.27587 38.6896L5.27588 7.03448L36.931 7.03448L68.5862 7.03448L100.241 7.03448L131.897 7.03448L163.552 7.03448V38.6896V70.3448V102V133.655V165.31H131.897H100.241H68.5862H36.931H5.27587L5.27587 133.655L5.27587 102L5.27587 70.3448L5.27587 38.6896Z" fill="#171616" fill-opacity="0.5"/>
<path d="M5.27588 0L5.27587 170M36.931 0L36.931 170M68.5862 0L68.5862 170M100.241 0L100.241 170M131.897 0L131.897 170M163.552 0V170M6.91846e-06 165.31H170M5.53477e-06 133.655H170M4.15107e-06 102H170M2.76738e-06 70.3448H170M1.38369e-06 38.6896H170M0 7.03448L170 7.03448" stroke="white" stroke-opacity="0.2"/>
</svg>
