<svg width="1332" height="1407" viewBox="0 0 1332 1407" fill="none" xmlns="http://www.w3.org/2000/svg">
<path fill-rule="evenodd" clip-rule="evenodd" d="M602.934 2.05143C734.937 27.8557 696.07 277.369 817.149 335.951C954.597 402.453 1146.57 229.852 1267.22 323.455C1370.26 403.404 1327.09 580.523 1295.52 707.094C1267.01 821.385 1202.38 936.027 1099.95 994.129C1003.69 1048.73 859.535 933.121 773.749 1003.04C660.357 1095.46 736.756 1340.16 602.934 1399.22C495.339 1446.7 417.476 1263.69 315.357 1205.34C212.622 1146.64 10.9649 1172.9 0.492558 1055.02C-12.7351 906.119 244.627 854.217 271.095 707.094C290.504 599.207 99.1617 533.286 113.894 424.661C126.953 328.372 260.724 305.073 334.233 241.549C426.587 161.74 483.156 -21.3633 602.934 2.05143Z" fill="#F150BA"/>
</svg>
