<svg width="582" height="615" viewBox="0 0 582 615" fill="none" xmlns="http://www.w3.org/2000/svg">
<path fill-rule="evenodd" clip-rule="evenodd" d="M263.444 0.89668C321.121 12.1757 304.139 121.238 357.043 146.844C417.099 175.912 500.979 100.468 553.694 141.382C598.719 176.328 579.854 253.747 566.061 309.071C553.606 359.028 525.365 409.137 480.607 434.534C438.547 458.399 375.563 407.867 338.079 438.43C288.534 478.826 321.916 585.785 263.444 611.599C216.432 632.355 182.41 552.358 137.791 526.855C92.9026 501.199 4.79095 512.675 0.215217 461.149C-5.56446 396.065 106.887 373.378 118.451 309.071C126.932 261.913 43.3274 233.099 49.7644 185.619C55.4703 143.532 113.92 133.348 146.039 105.581C186.392 70.6968 211.109 -9.33791 263.444 0.89668Z" fill="#507DF1"/>
</svg>
