<svg width="1920" height="1078" viewBox="0 0 1920 1078" fill="none" xmlns="http://www.w3.org/2000/svg">
<path d="M0 -2H1920V2.98615H0V-2Z" fill="white" fill-opacity="0.05"/>
<path d="M0 4.98061H1920V9.96676H0V4.98061Z" fill="white" fill-opacity="0.05"/>
<path d="M0 11.9612H1920V16.9474H0V11.9612Z" fill="white" fill-opacity="0.05"/>
<path d="M0 18.9418H1920V23.928H0V18.9418Z" fill="white" fill-opacity="0.05"/>
<path d="M0 25.9224H1920V30.9086H0V25.9224Z" fill="white" fill-opacity="0.05"/>
<path d="M0 32.903H1920V37.8892H0V32.903Z" fill="white" fill-opacity="0.05"/>
<path d="M0 39.8837H1920V44.8698H0V39.8837Z" fill="white" fill-opacity="0.05"/>
<path d="M0 46.8643H1920V51.8504H0V46.8643Z" fill="white" fill-opacity="0.05"/>
<path d="M0 53.8449H1920V58.831H0V53.8449Z" fill="white" fill-opacity="0.05"/>
<path d="M0 60.8255H1920V65.8116H0V60.8255Z" fill="white" fill-opacity="0.05"/>
<path d="M0 67.8061H1920V72.7922H0V67.8061Z" fill="white" fill-opacity="0.05"/>
<path d="M0 74.7867H1920V79.7729H0V74.7867Z" fill="white" fill-opacity="0.05"/>
<path d="M0 81.7673H1920V86.7535H0V81.7673Z" fill="white" fill-opacity="0.05"/>
<path d="M0 88.7479H1920V93.7341H0V88.7479Z" fill="white" fill-opacity="0.05"/>
<path d="M0 95.7285H1920V100.715H0V95.7285Z" fill="white" fill-opacity="0.05"/>
<path d="M0 102.709H1920V107.695H0V102.709Z" fill="white" fill-opacity="0.05"/>
<path d="M0 109.69H1920V114.676H0V109.69Z" fill="white" fill-opacity="0.05"/>
<path d="M0 116.67H1920V121.657H0V116.67Z" fill="white" fill-opacity="0.05"/>
<path d="M0 123.651H1920V128.637H0V123.651Z" fill="white" fill-opacity="0.05"/>
<path d="M0 130.632H1920V135.618H0V130.632Z" fill="white" fill-opacity="0.05"/>
<path d="M0 137.612H1920V142.598H0V137.612Z" fill="white" fill-opacity="0.05"/>
<path d="M0 144.593H1920V149.579H0V144.593Z" fill="white" fill-opacity="0.05"/>
<path d="M0 151.573H1920V156.56H0V151.573Z" fill="white" fill-opacity="0.05"/>
<path d="M0 158.554H1920V163.54H0V158.554Z" fill="white" fill-opacity="0.05"/>
<path d="M0 165.535H1920V170.521H0V165.535Z" fill="white" fill-opacity="0.05"/>
<path d="M0 172.515H1920V177.501H0V172.515Z" fill="white" fill-opacity="0.05"/>
<path d="M0 179.496H1920V184.482H0V179.496Z" fill="white" fill-opacity="0.05"/>
<path d="M0 186.476H1920V191.463H0V186.476Z" fill="white" fill-opacity="0.05"/>
<path d="M0 193.457H1920V198.443H0V193.457Z" fill="white" fill-opacity="0.05"/>
<path d="M0 200.438H1920V205.424H0V200.438Z" fill="white" fill-opacity="0.05"/>
<path d="M0 207.418H1920V212.404H0V207.418Z" fill="white" fill-opacity="0.05"/>
<path d="M0 214.399H1920V219.385H0V214.399Z" fill="white" fill-opacity="0.05"/>
<path d="M0 221.38H1920V226.366H0V221.38Z" fill="white" fill-opacity="0.05"/>
<path d="M0 228.36H1920V233.346H0V228.36Z" fill="white" fill-opacity="0.05"/>
<path d="M0 235.341H1920V240.327H0V235.341Z" fill="white" fill-opacity="0.05"/>
<path d="M0 242.321H1920V247.307H0V242.321Z" fill="white" fill-opacity="0.05"/>
<path d="M0 249.302H1920V254.288H0V249.302Z" fill="white" fill-opacity="0.05"/>
<path d="M0 256.283H1920V261.269H0V256.283Z" fill="white" fill-opacity="0.05"/>
<path d="M0 263.263H1920V268.249H0V263.263Z" fill="white" fill-opacity="0.05"/>
<path d="M0 270.244H1920V275.23H0V270.244Z" fill="white" fill-opacity="0.05"/>
<path d="M0 277.224H1920V282.211H0V277.224Z" fill="white" fill-opacity="0.05"/>
<path d="M0 284.205H1920V289.191H0V284.205Z" fill="white" fill-opacity="0.05"/>
<path d="M0 291.186H1920V296.172H0V291.186Z" fill="white" fill-opacity="0.05"/>
<path d="M0 298.166H1920V303.152H0V298.166Z" fill="white" fill-opacity="0.05"/>
<path d="M0 305.147H1920V310.133H0V305.147Z" fill="white" fill-opacity="0.05"/>
<path d="M0 312.127H1920V317.114H0V312.127Z" fill="white" fill-opacity="0.05"/>
<path d="M0 319.108H1920V324.094H0V319.108Z" fill="white" fill-opacity="0.05"/>
<path d="M0 326.089H1920V331.075H0V326.089Z" fill="white" fill-opacity="0.05"/>
<path d="M0 333.069H1920V338.055H0V333.069Z" fill="white" fill-opacity="0.05"/>
<path d="M0 340.05H1920V345.036H0V340.05Z" fill="white" fill-opacity="0.05"/>
<path d="M0 347.03H1920V352.017H0V347.03Z" fill="white" fill-opacity="0.05"/>
<path d="M0 354.011H1920V358.997H0V354.011Z" fill="white" fill-opacity="0.05"/>
<path d="M0 360.992H1920V365.978H0V360.992Z" fill="white" fill-opacity="0.05"/>
<path d="M0 367.972H1920V372.958H0V367.972Z" fill="white" fill-opacity="0.05"/>
<path d="M0 374.953H1920V379.939H0V374.953Z" fill="white" fill-opacity="0.05"/>
<path d="M0 381.934H1920V386.92H0V381.934Z" fill="white" fill-opacity="0.05"/>
<path d="M0 388.914H1920V393.9H0V388.914Z" fill="white" fill-opacity="0.05"/>
<path d="M0 395.895H1920V400.881H0V395.895Z" fill="white" fill-opacity="0.05"/>
<path d="M0 402.875H1920V407.862H0V402.875Z" fill="white" fill-opacity="0.05"/>
<path d="M0 409.856H1920V414.842H0V409.856Z" fill="white" fill-opacity="0.05"/>
<path d="M0 416.837H1920V421.823H0V416.837Z" fill="white" fill-opacity="0.05"/>
<path d="M0 423.817H1920V428.803H0V423.817Z" fill="white" fill-opacity="0.05"/>
<path d="M0 430.798H1920V435.784H0V430.798Z" fill="white" fill-opacity="0.05"/>
<path d="M0 437.778H1920V442.765H0V437.778Z" fill="white" fill-opacity="0.05"/>
<path d="M0 444.759H1920V449.745H0V444.759Z" fill="white" fill-opacity="0.05"/>
<path d="M0 451.74H1920V456.726H0V451.74Z" fill="white" fill-opacity="0.05"/>
<path d="M0 458.72H1920V463.706H0V458.72Z" fill="white" fill-opacity="0.05"/>
<path d="M0 465.701H1920V470.687H0V465.701Z" fill="white" fill-opacity="0.05"/>
<path d="M0 472.681H1920V477.668H0V472.681Z" fill="white" fill-opacity="0.05"/>
<path d="M0 479.662H1920V484.648H0V479.662Z" fill="white" fill-opacity="0.05"/>
<path d="M0 486.643H1920V491.629H0V486.643Z" fill="white" fill-opacity="0.05"/>
<path d="M0 493.623H1920V498.609H0V493.623Z" fill="white" fill-opacity="0.05"/>
<path d="M0 500.604H1920V505.59H0V500.604Z" fill="white" fill-opacity="0.05"/>
<path d="M0 507.584H1920V512.571H0V507.584Z" fill="white" fill-opacity="0.05"/>
<path d="M0 514.565H1920V519.551H0V514.565Z" fill="white" fill-opacity="0.05"/>
<path d="M0 521.546H1920V526.532H0V521.546Z" fill="white" fill-opacity="0.05"/>
<path d="M0 528.526H1920V533.512H0V528.526Z" fill="white" fill-opacity="0.05"/>
<path d="M0 535.507H1920V540.493H0V535.507Z" fill="white" fill-opacity="0.05"/>
<path d="M0 542.488H1920V547.474H0V542.488Z" fill="white" fill-opacity="0.05"/>
<path d="M0 549.468H1920V554.454H0V549.468Z" fill="white" fill-opacity="0.05"/>
<path d="M0 556.449H1920V561.435H0V556.449Z" fill="white" fill-opacity="0.05"/>
<path d="M0 563.429H1920V568.416H0V563.429Z" fill="white" fill-opacity="0.05"/>
<path d="M0 570.41H1920V575.396H0V570.41Z" fill="white" fill-opacity="0.05"/>
<path d="M0 577.391H1920V582.377H0V577.391Z" fill="white" fill-opacity="0.05"/>
<path d="M0 584.371H1920V589.357H0V584.371Z" fill="white" fill-opacity="0.05"/>
<path d="M0 591.352H1920V596.338H0V591.352Z" fill="white" fill-opacity="0.05"/>
<path d="M0 598.332H1920V603.319H0V598.332Z" fill="white" fill-opacity="0.05"/>
<path d="M0 605.313H1920V610.299H0V605.313Z" fill="white" fill-opacity="0.05"/>
<path d="M0 612.294H1920V617.28H0V612.294Z" fill="white" fill-opacity="0.05"/>
<path d="M0 619.274H1920V624.26H0V619.274Z" fill="white" fill-opacity="0.05"/>
<path d="M0 626.255H1920V631.241H0V626.255Z" fill="white" fill-opacity="0.05"/>
<path d="M0 633.235H1920V638.222H0V633.235Z" fill="white" fill-opacity="0.05"/>
<path d="M0 640.216H1920V645.202H0V640.216Z" fill="white" fill-opacity="0.05"/>
<path d="M0 647.197H1920V652.183H0V647.197Z" fill="white" fill-opacity="0.05"/>
<path d="M0 654.177H1920V659.163H0V654.177Z" fill="white" fill-opacity="0.05"/>
<path d="M0 661.158H1920V666.144H0V661.158Z" fill="white" fill-opacity="0.05"/>
<path d="M0 668.139H1920V673.125H0V668.139Z" fill="white" fill-opacity="0.05"/>
<path d="M0 675.119H1920V680.105H0V675.119Z" fill="white" fill-opacity="0.05"/>
<path d="M0 682.1H1920V687.086H0V682.1Z" fill="white" fill-opacity="0.05"/>
<path d="M0 689.08H1920V694.066H0V689.08Z" fill="white" fill-opacity="0.05"/>
<path d="M0 696.061H1920V701.047H0V696.061Z" fill="white" fill-opacity="0.05"/>
<path d="M0 703.042H1920V708.028H0V703.042Z" fill="white" fill-opacity="0.05"/>
<path d="M0 710.022H1920V715.008H0V710.022Z" fill="white" fill-opacity="0.05"/>
<path d="M0 717.003H1920V721.989H0V717.003Z" fill="white" fill-opacity="0.05"/>
<path d="M0 723.983H1920V728.97H0V723.983Z" fill="white" fill-opacity="0.05"/>
<path d="M0 730.964H1920V735.95H0V730.964Z" fill="white" fill-opacity="0.05"/>
<path d="M0 737.945H1920V742.931H0V737.945Z" fill="white" fill-opacity="0.05"/>
<path d="M0 744.925H1920V749.911H0V744.925Z" fill="white" fill-opacity="0.05"/>
<path d="M0 751.906H1920V756.892H0V751.906Z" fill="white" fill-opacity="0.05"/>
<path d="M0 758.886H1920V763.873H0V758.886Z" fill="white" fill-opacity="0.05"/>
<path d="M0 765.867H1920V770.853H0V765.867Z" fill="white" fill-opacity="0.05"/>
<path d="M0 772.848H1920V777.834H0V772.848Z" fill="white" fill-opacity="0.05"/>
<path d="M0 779.828H1920V784.814H0V779.828Z" fill="white" fill-opacity="0.05"/>
<path d="M0 786.809H1920V791.795H0V786.809Z" fill="white" fill-opacity="0.05"/>
<path d="M0 793.789H1920V798.776H0V793.789Z" fill="white" fill-opacity="0.05"/>
<path d="M0 800.77H1920V805.756H0V800.77Z" fill="white" fill-opacity="0.05"/>
<path d="M0 807.751H1920V812.737H0V807.751Z" fill="white" fill-opacity="0.05"/>
<path d="M0 814.731H1920V819.717H0V814.731Z" fill="white" fill-opacity="0.05"/>
<path d="M0 821.712H1920V826.698H0V821.712Z" fill="white" fill-opacity="0.05"/>
<path d="M0 828.693H1920V833.679H0V828.693Z" fill="white" fill-opacity="0.05"/>
<path d="M0 835.673H1920V840.659H0V835.673Z" fill="white" fill-opacity="0.05"/>
<path d="M0 842.654H1920V847.64H0V842.654Z" fill="white" fill-opacity="0.05"/>
<path d="M0 849.634H1920V854.621H0V849.634Z" fill="white" fill-opacity="0.05"/>
<path d="M0 856.615H1920V861.601H0V856.615Z" fill="white" fill-opacity="0.05"/>
<path d="M0 863.596H1920V868.582H0V863.596Z" fill="white" fill-opacity="0.05"/>
<path d="M0 870.576H1920V875.562H0V870.576Z" fill="white" fill-opacity="0.05"/>
<path d="M0 877.557H1920V882.543H0V877.557Z" fill="white" fill-opacity="0.05"/>
<path d="M0 884.537H1920V889.524H0V884.537Z" fill="white" fill-opacity="0.05"/>
<path d="M0 891.518H1920V896.504H0V891.518Z" fill="white" fill-opacity="0.05"/>
<path d="M0 898.499H1920V903.485H0V898.499Z" fill="white" fill-opacity="0.05"/>
<path d="M0 905.479H1920V910.465H0V905.479Z" fill="white" fill-opacity="0.05"/>
<path d="M0 912.46H1920V917.446H0V912.46Z" fill="white" fill-opacity="0.05"/>
<path d="M0 919.44H1920V924.427H0V919.44Z" fill="white" fill-opacity="0.05"/>
<path d="M0 926.421H1920V931.407H0V926.421Z" fill="white" fill-opacity="0.05"/>
<path d="M0 933.402H1920V938.388H0V933.402Z" fill="white" fill-opacity="0.05"/>
<path d="M0 940.382H1920V945.368H0V940.382Z" fill="white" fill-opacity="0.05"/>
<path d="M0 947.363H1920V952.349H0V947.363Z" fill="white" fill-opacity="0.05"/>
<path d="M0 954.344H1920V959.33H0V954.344Z" fill="white" fill-opacity="0.05"/>
<path d="M0 961.324H1920V966.31H0V961.324Z" fill="white" fill-opacity="0.05"/>
<path d="M0 968.305H1920V973.291H0V968.305Z" fill="white" fill-opacity="0.05"/>
<path d="M0 975.285H1920V980.271H0V975.285Z" fill="white" fill-opacity="0.05"/>
<path d="M0 982.266H1920V987.252H0V982.266Z" fill="white" fill-opacity="0.05"/>
<path d="M0 989.247H1920V994.233H0V989.247Z" fill="white" fill-opacity="0.05"/>
<path d="M0 996.227H1920V1001.21H0V996.227Z" fill="white" fill-opacity="0.05"/>
<path d="M0 1003.21H1920V1008.19H0V1003.21Z" fill="white" fill-opacity="0.05"/>
<path d="M0 1010.19H1920V1015.17H0V1010.19Z" fill="white" fill-opacity="0.05"/>
<path d="M0 1017.17H1920V1022.16H0V1017.17Z" fill="white" fill-opacity="0.05"/>
<path d="M0 1024.15H1920V1029.14H0V1024.15Z" fill="white" fill-opacity="0.05"/>
<path d="M0 1031.13H1920V1036.12H0V1031.13Z" fill="white" fill-opacity="0.05"/>
<path d="M0 1038.11H1920V1043.1H0V1038.11Z" fill="white" fill-opacity="0.05"/>
<path d="M0 1045.09H1920V1050.08H0V1045.09Z" fill="white" fill-opacity="0.05"/>
<path d="M0 1052.07H1920V1057.06H0V1052.07Z" fill="white" fill-opacity="0.05"/>
<path d="M0 1059.05H1920V1064.04H0V1059.05Z" fill="white" fill-opacity="0.05"/>
<path d="M0 1066.03H1920V1071.02H0V1066.03Z" fill="white" fill-opacity="0.05"/>
<path d="M0 1073.01H1920V1078H0V1073.01Z" fill="white" fill-opacity="0.05"/>
</svg>
