<svg width="338" height="102" viewBox="0 0 338 102" fill="none" xmlns="http://www.w3.org/2000/svg">
<g clip-path="url(#clip0_1_13)">
<path d="M0 61.5075V0H15.2172V49.8359H37.997V61.5075H0Z" fill="white"/>
<path d="M37.9098 11.7642H34.2208V35.2927H37.9098V11.7642ZM53.1271 41.1285C53.1271 45.0191 50.6062 46.9643 45.5645 46.9643H26.566C21.5244 46.9643 19.0035 45.0191 19.0035 41.1285V5.92844C19.0035 1.97615 21.5244 0 26.566 0H45.5645C50.6062 0 53.1271 1.97615 53.1271 5.92844V41.1285Z" fill="white"/>
<path d="M91.1341 41.1285C91.1341 45.0191 88.6133 46.9643 83.5716 46.9643H64.5731C59.5315 46.9643 57.0106 45.0191 57.0106 41.1285V32.3285H72.2279V35.2927H75.9169V29.3643H64.5731C59.5315 29.3643 57.0106 27.3881 57.0106 23.4359V5.92844C57.0106 1.97615 59.5315 0 64.5731 0H83.5716C88.6133 0 91.1341 1.97615 91.1341 5.92844V14.6358H75.9169V11.7642H72.2279V17.6H83.5716C88.6133 17.6 91.1341 19.5453 91.1341 23.4359V41.1285Z" fill="white"/>
<path d="M145.443 41.1285C145.443 45.0191 142.922 46.9643 137.88 46.9643H118.882C113.84 46.9643 111.319 45.0191 111.319 41.1285V32.3285H126.537V35.2927H130.226V29.3643H118.882C113.84 29.3643 111.319 27.3881 111.319 23.4359V5.92844C111.319 1.97615 113.84 0 118.882 0H137.88C142.922 0 145.443 1.97615 145.443 5.92844V14.6358H130.226V11.7642H126.537V17.6H137.88C142.922 17.6 145.443 19.5453 145.443 23.4359V41.1285Z" fill="white"/>
<path d="M168.233 29.3643H164.544V35.2927H168.233V29.3643ZM156.889 46.9643C151.847 46.9643 149.326 45.0191 149.326 41.1285V23.4359C149.326 19.5453 151.847 17.6 156.889 17.6H168.233V11.7642H164.544V14.6358H149.326V5.92844C149.326 1.97615 151.847 0 156.889 0H175.887C180.929 0 183.45 1.97615 183.45 5.92844V46.9643H156.889Z" fill="white"/>
<path d="M206.24 46.9643V11.7642H202.551V46.9643H187.333V0H202.551V2.96422C205.072 0.988073 208.853 0 213.894 0C215.616 0 217.276 0.524914 218.875 1.57474C220.596 2.74808 221.457 4.19931 221.457 5.92844V46.9643H206.24Z" fill="white"/>
<path d="M261.954 41.1285C261.954 45.0191 259.433 46.9643 254.392 46.9643H235.393C230.351 46.9643 227.831 45.0191 227.831 41.1285V14.6358H224.049V2.96422H227.831V0H243.048V2.96422H261.954V14.6358H243.048V35.2927H246.829V17.6H261.954V41.1285Z" fill="white"/>
<path d="M284.776 11.7642H281.087V35.2927H284.776V11.7642ZM299.993 41.1285C299.993 45.0191 297.472 46.9643 292.43 46.9643H273.432C268.39 46.9643 265.869 45.0191 265.869 41.1285V5.92844C265.869 1.97615 268.39 0 273.432 0H292.43C297.472 0 299.993 1.97615 299.993 5.92844V41.1285Z" fill="white"/>
<path d="M338 41.1285C338 45.0191 335.479 46.9643 330.438 46.9643H311.439C306.397 46.9643 303.877 45.0191 303.877 41.1285V32.3285H319.094V35.2927H322.783V29.3643H311.439C306.397 29.3643 303.877 27.3881 303.877 23.4359V5.92844C303.877 1.97615 306.397 0 311.439 0H330.438C335.479 0 338 1.97615 338 5.92844V14.6358H322.783V11.7642H319.094V17.6H330.438C335.479 17.6 338 19.5453 338 23.4359V41.1285Z" fill="white"/>
<path d="M86.7556 87.5649C86.7556 90.3207 84.9621 91.6986 81.3753 91.6986H67.859C64.2722 91.6986 62.4788 90.3207 62.4788 87.5649V75.0326H73.3049V83.4312H75.9294V58.4322H86.7556V87.5649Z" fill="#F1C950"/>
<path d="M102.969 66.7652H100.345V83.4312H102.969V66.7652ZM113.795 87.5649C113.795 90.3207 112.002 91.6986 108.415 91.6986H94.8987C91.3119 91.6986 89.5185 90.3207 89.5185 87.5649V62.6315C89.5185 59.8319 91.3119 58.4322 94.8987 58.4322H108.415C112.002 58.4322 113.795 59.8319 113.795 62.6315V87.5649Z" fill="#F1C950"/>
<path d="M140.835 87.5649C140.835 90.3207 139.042 91.6986 135.455 91.6986H121.938C118.352 91.6986 116.558 90.3207 116.558 87.5649V58.4322H127.384V83.4312H130.009V58.4322H140.835V87.5649Z" fill="#F1C950"/>
<path d="M157.048 66.7652H154.424V70.8989H157.048V66.7652ZM157.048 91.6986V79.2319H154.424V91.6986H143.598V58.4322H162.494C166.081 58.4322 167.875 59.8319 167.875 62.6315V71.8175C167.875 73.2172 166.978 74.2889 165.184 75.0326C166.978 75.8199 167.875 76.8916 167.875 78.2477V91.6986H157.048Z" fill="#F1C950"/>
<path d="M184.088 91.6986V66.7652H181.464V91.6986H170.638V58.4322H181.464V60.5318C183.257 59.132 185.947 58.4322 189.534 58.4322C190.759 58.4322 191.94 58.804 193.077 59.5476C194.302 60.3787 194.914 61.4067 194.914 62.6315V91.6986H184.088Z" fill="#F1C950"/>
<path d="M211.128 66.7652H208.503V70.8989H211.128V66.7652ZM221.954 87.5649C221.954 90.3207 220.161 91.6986 216.574 91.6986H203.057C199.471 91.6986 197.677 90.3207 197.677 87.5649V62.6315C197.677 59.8319 199.471 58.4322 203.057 58.4322H216.574C220.161 58.4322 221.954 59.8319 221.954 62.6315V79.2319H208.503V83.4312H211.128V81.3315H221.954V87.5649Z" fill="#F1C950"/>
<path d="M248.994 97.8663C248.994 100.622 247.2 102 243.613 102H224.717V93.7326H238.168V91.6986H230.097C226.51 91.6986 224.717 90.3207 224.717 87.5649V58.4322H235.543V83.4312H238.168V58.4322H248.994V97.8663Z" fill="#F1C950"/>
<path d="M276.033 87.5649C276.033 90.3207 274.24 91.6986 270.653 91.6986H257.137C253.55 91.6986 251.757 90.3207 251.757 87.5649V81.3315H262.583V83.4312H265.207V79.2319H257.137C253.55 79.2319 251.757 77.8321 251.757 75.0326V62.6315C251.757 59.8319 253.55 58.4322 257.137 58.4322H270.653C274.24 58.4322 276.033 59.8319 276.033 62.6315V68.7992H265.207V66.7652H262.583V70.8989H270.653C274.24 70.8989 276.033 72.2768 276.033 75.0326V87.5649Z" fill="#F1C950"/>
</g>
<defs>
<clipPath id="clip0_1_13">
<rect width="338" height="102" fill="white"/>
</clipPath>
</defs>
</svg>
